<svg width="376" height="250" viewBox="0 0 376 250" fill="none" xmlns="http://www.w3.org/2000/svg">
<path d="M8.62225 203.244V181.69L62.667 96.5455H81.2508V126.381H70.2522L36.1819 180.299V181.31H112.982V203.244H8.62225ZM70.7579 226V196.67L71.2636 187.126V96.5455H96.9269V226H70.7579ZM181.976 228.844C171.104 228.802 161.749 226.126 153.911 220.817C146.115 215.507 140.11 207.817 135.896 197.745C131.724 187.674 129.659 175.558 129.701 161.399C129.701 147.282 131.787 135.251 135.959 125.306C140.173 115.361 146.178 107.797 153.974 102.614C161.812 97.3883 171.146 94.7756 181.976 94.7756C192.806 94.7756 202.119 97.3883 209.915 102.614C217.753 107.839 223.779 115.424 227.993 125.369C232.207 135.272 234.293 147.282 234.251 161.399C234.251 175.6 232.144 187.737 227.93 197.808C223.758 207.88 217.774 215.57 209.978 220.88C202.183 226.19 192.848 228.844 181.976 228.844ZM181.976 206.152C189.393 206.152 195.314 202.423 199.738 194.964C204.163 187.505 206.354 176.317 206.312 161.399C206.312 151.58 205.301 143.405 203.278 136.874C201.298 130.342 198.474 125.433 194.808 122.146C191.184 118.859 186.907 117.215 181.976 117.215C174.602 117.215 168.702 120.902 164.277 128.277C159.853 135.652 157.619 146.692 157.577 161.399C157.577 171.344 158.567 179.646 160.548 186.304C162.571 192.92 165.415 197.893 169.081 201.222C172.748 204.509 177.046 206.152 181.976 206.152ZM251.808 203.244V181.69L305.853 96.5455H324.436V126.381H313.438L279.367 180.299V181.31H356.168V203.244H251.808ZM313.943 226V196.67L314.449 187.126V96.5455H340.112V226H313.943Z" fill="url(#paint0_linear_1758_79429)"/>
<path d="M133.815 67.0864L168.75 82.1117" stroke="#316FEA" stroke-width="7.01491"/>
<path d="M158.796 57.1317L143.77 92.0664" stroke="#316FEA" stroke-width="7.01491"/>
<path d="M364.188 52.8019C360.453 55.1401 351.215 56.5948 347.063 57.0299C344.986 55.0211 343.61 50.4502 346.152 48.3788C347.338 46.4593 355.043 50.3998 361.629 47.1935C362.714 46.6654 370.303 38.8406 371.871 37.8123C373.438 36.784 373.879 38.7371 373.379 40.3258C372.88 41.9145 368.857 49.8791 364.188 52.8019Z" fill="#316FEA"/>
<path d="M304.517 39.623C304.901 40.3798 309.009 42.9818 311.015 44.1882C315.61 42.4349 319.397 44.5751 320.147 44.2232C320.897 43.8712 323.968 43.3004 323.677 43.0708C314.417 35.7586 311.951 38.6737 307.527 32.4632C306.311 30.7561 305.327 26.7599 307.468 22.9735C309.608 19.1871 308.647 17.2952 308.714 16.9707C308.782 16.6463 307.551 16.0522 307.181 17.8368C306.884 19.2645 304.622 22.5517 303.528 24.0169C302.492 24.93 300.452 27.7443 300.578 31.697C300.737 36.6378 304.037 38.677 304.517 39.623Z" fill="#316FEA"/>
<path fill-rule="evenodd" clip-rule="evenodd" d="M307.831 45.4685C306.61 47.2744 307.975 48.0368 307.975 48.0368C307.109 48.4558 305.289 48.7823 303.001 49.1926C298.822 49.9421 293.085 50.9712 288.762 53.3543C283.639 56.1786 285.725 55.8349 287.275 55.5797C287.748 55.5017 288.172 55.4319 288.324 55.4634C288.973 55.5982 289.683 56.2534 288.088 56.5991C286.493 56.9448 282.433 61.0095 282.984 65.6932C283.148 65.7274 283.37 65.7686 283.626 65.8161C284.879 66.049 286.949 66.4335 287.134 66.8938C287.358 67.4479 282.607 68.3227 281.309 68.0531C280.011 67.7835 279.505 70.2172 282.006 70.3981C283.177 70.4829 284.693 70.157 286.117 69.8508C287.735 69.5031 289.234 69.1808 289.975 69.5146C290.893 69.9285 291.829 69.9046 293.617 69.8589C294.541 69.8352 295.693 69.8058 297.187 69.8279C300.374 69.8751 301.803 71.0757 302.657 71.7934C302.979 72.0636 303.219 72.2654 303.441 72.3115C303.785 72.3831 304.237 72.2325 304.685 72.0834C305.291 71.8814 305.89 71.682 306.205 72.0394C306.345 72.1988 306.473 72.4221 306.606 72.6564C306.993 73.3361 307.433 74.1084 308.403 73.6806C309.044 73.3978 309.236 73.308 309.35 73.3675C309.468 73.4292 309.502 73.6507 309.863 73.9838C310.237 74.329 310.579 74.1509 310.984 73.9395C311.349 73.7496 311.765 73.5328 312.303 73.6444C312.473 73.6797 312.635 73.7172 312.789 73.7528C313.665 73.9552 314.29 74.0996 314.709 73.4672C314.987 73.048 315.593 72.8583 316.181 72.6745C316.636 72.5322 317.08 72.3934 317.351 72.1543C317.574 71.9577 317.944 71.6826 318.33 71.3958C319.02 70.8833 319.76 70.3332 319.803 70.1251C319.857 69.8656 320.983 68.7906 321.539 68.2856C321.384 68.7611 321.255 69.8174 321.98 70.2387C322.536 70.5619 323.368 69.8592 324.041 69.2913C324.465 68.9338 324.825 68.6297 325.013 68.6688C325.125 68.6918 325.174 68.8432 325.247 69.0681C325.494 69.8285 326.015 71.43 330.125 71.7613C335.452 72.1907 336.134 72.1632 337.803 70.6482C338.5 70.0152 339.254 69.394 339.96 68.8122C340.943 68.0015 341.834 67.2673 342.349 66.6846C343.234 65.6837 342.73 59.148 342.473 58.7561C342.383 58.6182 342.819 58.5687 343.458 58.4962C344.635 58.3626 346.501 58.1509 347.034 57.165C347.693 55.9479 346.571 50.9762 345.928 48.6424C345.789 48.8622 345.421 48.6441 344.418 48.0493C343.601 47.5646 342.362 46.8298 340.482 45.8782C334.988 43.0972 316.17 42.8003 313.143 43.5254C310.721 44.1054 308.507 44.9318 307.831 45.4685ZM326.491 51.8144C328.266 51.5113 330.408 51.1455 331.108 52.3614C332.102 54.0912 330.583 57.3296 329.861 58.3642C329.138 59.3988 324.95 63.2675 322.446 59.0243C320.444 55.6298 323.508 52.2848 325.781 51.932C326.007 51.8969 326.245 51.8562 326.491 51.8144Z" fill="#316FEA"/>
<g opacity="0.3">
<path d="M292.187 55.6182C292.031 54.7397 292.383 52.8834 295.038 52.4871C298.356 51.9916 303.466 51.022 303.6 50.373" stroke="#272727" stroke-width="0.662806"/>
<path d="M295.349 55.061C294.991 54.1744 289.971 56.033 287.069 57.2356C284.691 58.908 283.231 62.8436 283.151 64.8578C283.092 66.3494 287.293 65.3137 287.293 67.1776C287.293 69.0078 295.34 61.1713 295.744 59.2243C296.149 57.2774 295.033 58.2108 294.262 57.0352C293.49 55.8596 295.795 56.1692 295.349 55.061Z" stroke="#316FEA" stroke-width="0.662806"/>
<path d="M296.076 58.2299C298.723 57.7078 306.792 55.5369 307.76 54.7901C308.969 53.8566 312.178 50.6306 313.24 52.0358" stroke="#316FEA" stroke-width="0.662806"/>
<path d="M307.854 55.1495C308.469 55.4466 309.895 56.0811 310.673 56.2428C311.647 56.445 309.262 58.1497 310.526 58.5815C311.537 58.927 314.364 59.6607 315.65 59.9843" stroke="#272727" stroke-width="0.662806"/>
<path d="M322.179 69.2931C323.113 67.5126 325.351 63.961 326.832 63.9979C328.684 64.0441 334.146 63.8245 335.098 62.4991" stroke="#272727" stroke-width="0.662806"/>
<path d="M312.867 62.7891C314.804 61.6118 319.163 59.5274 321.105 60.6076C323.533 61.958 321.83 63.6353 326.474 64.0921" stroke="#272727" stroke-width="0.662806"/>
</g>
<defs>
<linearGradient id="paint0_linear_1758_79429" x1="57.4462" y1="170.511" x2="361.675" y2="177.052" gradientUnits="userSpaceOnUse">
<stop stop-color="#316FEA"/>
<stop offset="0.338542" stop-color="#0000ff"/>
<stop offset="0.651042" stop-color="#316FEA"/>
<stop offset="0.921875" stop-color="#316FEA"/>
</linearGradient>
<clipPath id="clip0_1758_79429">
<rect width="32.9281" height="32.9281" fill="white" transform="translate(227.612 52) rotate(83.8985)"/>
</clipPath>
</defs>
</svg>
