<svg width="478" height="283" viewBox="0 0 478 283" fill="none" xmlns="http://www.w3.org/2000/svg">
<path d="M232.349 28.9189C229.762 31.373 231.111 33.0104 234.57 32.0404C242.777 29.7396 256.932 26.5255 263.375 29.5465C263.375 29.5465 244.532 44.187 247.372 73.1403C247.716 76.6531 250.402 79.4614 252.989 79.4614C255.577 79.4614 257.297 76.6161 257.289 73.0861C257.273 65.1076 258.651 50.2399 266.906 31.9425C266.906 31.9425 273.046 39.8535 274.891 48.4861C275.63 51.9393 277.004 52.4231 277.961 49.0199C279.008 45.2824 279.34 40.1322 276.275 34.7348C276.275 34.7348 287.998 40.9661 295.635 48.9973C298.089 51.5782 299.549 51.1435 298.592 47.7418C296.579 40.5999 290.644 29.5144 273.15 26.2159C273.15 26.2159 279.886 22.9979 288.055 23.3165C291.651 23.4552 292.833 21.802 289.63 20.191C285.733 18.2285 279.077 16.9134 268.262 19.9624C268.262 19.9624 263.051 7.505 246.214 8.01526C242.618 8.12484 242.462 9.85486 245.695 11.3997C251.28 14.0679 258.997 18.3684 260.523 22.3584C260.526 22.3586 243.173 18.6476 232.349 28.9189Z" fill="#316FEA"/>
<path d="M126.44 82.5703H111.82C111.553 80.6787 111.007 78.9986 110.184 77.5298C109.361 76.0388 108.304 74.7704 107.013 73.7244C105.722 72.6785 104.231 71.8774 102.54 71.321C100.871 70.7647 99.0571 70.4865 97.0987 70.4865C93.5604 70.4865 90.4782 71.3655 87.8523 73.1236C85.2263 74.8594 83.1901 77.3963 81.7436 80.7344C80.2971 84.0502 79.5739 88.0781 79.5739 92.8182C79.5739 97.6918 80.2971 101.786 81.7436 105.102C83.2124 108.418 85.2597 110.922 87.8857 112.613C90.5116 114.304 93.5492 115.15 96.9986 115.15C98.9347 115.15 100.726 114.894 102.373 114.382C104.042 113.87 105.522 113.125 106.812 112.146C108.103 111.144 109.171 109.931 110.017 108.507C110.885 107.083 111.486 105.458 111.82 103.634L126.44 103.7C126.062 106.838 125.116 109.865 123.603 112.78C122.112 115.673 120.098 118.265 117.561 120.558C115.046 122.827 112.042 124.63 108.548 125.965C105.077 127.278 101.149 127.935 96.7649 127.935C90.6674 127.935 85.2152 126.555 80.4084 123.795C75.6238 121.036 71.8407 117.041 69.0589 111.812C66.2995 106.582 64.9197 100.251 64.9197 92.8182C64.9197 85.3632 66.3217 79.0208 69.1257 73.7912C71.9297 68.5616 75.7351 64.5781 80.5419 61.8409C85.3487 59.0814 90.7564 57.7017 96.7649 57.7017C100.726 57.7017 104.398 58.258 107.781 59.3707C111.185 60.4834 114.201 62.108 116.827 64.2443C119.453 66.3584 121.589 68.951 123.236 72.022C124.905 75.093 125.973 78.6091 126.44 82.5703ZM159.704 128.001C154.519 128.001 150.035 126.9 146.252 124.697C142.491 122.471 139.587 119.378 137.539 115.417C135.492 111.433 134.468 106.816 134.468 101.564C134.468 96.2675 135.492 91.6387 137.539 87.6776C139.587 83.6941 142.491 80.6009 146.252 78.3977C150.035 76.1723 154.519 75.0597 159.704 75.0597C164.889 75.0597 169.362 76.1723 173.123 78.3977C176.906 80.6009 179.822 83.6941 181.869 87.6776C183.916 91.6387 184.94 96.2675 184.94 101.564C184.94 106.816 183.916 111.433 181.869 115.417C179.822 119.378 176.906 122.471 173.123 124.697C169.362 126.9 164.889 128.001 159.704 128.001ZM159.771 116.986C162.13 116.986 164.099 116.318 165.679 114.983C167.259 113.625 168.45 111.778 169.251 109.442C170.074 107.105 170.486 104.446 170.486 101.464C170.486 98.4818 170.074 95.8224 169.251 93.4858C168.45 91.1491 167.259 89.3021 165.679 87.9446C164.099 86.5871 162.13 85.9084 159.771 85.9084C157.39 85.9084 155.387 86.5871 153.762 87.9446C152.16 89.3021 150.947 91.1491 150.124 93.4858C149.323 95.8224 148.922 98.4818 148.922 101.464C148.922 104.446 149.323 107.105 150.124 109.442C150.947 111.778 152.16 113.625 153.762 114.983C155.387 116.318 157.39 116.986 159.771 116.986ZM194.186 127V75.7273H207.739V84.7734H208.34C209.408 81.7692 211.188 79.3991 213.681 77.6633C216.173 75.9276 219.155 75.0597 222.627 75.0597C226.143 75.0597 229.136 75.9387 231.606 77.6967C234.076 79.4325 235.723 81.7914 236.547 84.7734H237.081C238.127 81.8359 240.018 79.4882 242.755 77.7301C245.515 75.9498 248.775 75.0597 252.536 75.0597C257.32 75.0597 261.204 76.584 264.186 79.6328C267.19 82.6593 268.692 86.9543 268.692 92.5178V127H254.505V95.3217C254.505 92.4732 253.749 90.3369 252.235 88.9126C250.722 87.4884 248.831 86.7763 246.561 86.7763C243.979 86.7763 241.965 87.5997 240.519 89.2464C239.072 90.871 238.349 93.0185 238.349 95.6889V127H224.563V95.0213C224.563 92.5066 223.84 90.5038 222.393 89.0128C220.969 87.5218 219.088 86.7763 216.752 86.7763C215.172 86.7763 213.748 87.1768 212.479 87.978C211.233 88.7569 210.243 89.8584 209.508 91.2827C208.774 92.6847 208.407 94.3314 208.407 96.223V127H194.186ZM279.925 127V75.7273H294.145V127H279.925ZM287.068 69.1179C284.954 69.1179 283.14 68.4169 281.627 67.0149C280.136 65.5907 279.391 63.8883 279.391 61.9077C279.391 59.9493 280.136 58.2692 281.627 56.8672C283.14 55.4429 284.954 54.7308 287.068 54.7308C289.182 54.7308 290.985 55.4429 292.476 56.8672C293.989 58.2692 294.746 59.9493 294.746 61.9077C294.746 63.8883 293.989 65.5907 292.476 67.0149C290.985 68.4169 289.182 69.1179 287.068 69.1179ZM319.756 97.358V127H305.536V75.7273H319.089V84.7734H319.689C320.824 81.7914 322.727 79.4325 325.398 77.6967C328.068 75.9387 331.306 75.0597 335.111 75.0597C338.672 75.0597 341.776 75.8385 344.425 77.3963C347.073 78.9541 349.131 81.1794 350.6 84.0724C352.069 86.9432 352.803 90.3703 352.803 94.3537V127H338.583V96.8906C338.605 93.7528 337.804 91.3049 336.18 89.5469C334.555 87.7666 332.318 86.8764 329.47 86.8764C327.556 86.8764 325.865 87.2881 324.396 88.1115C322.95 88.9349 321.815 90.1366 320.991 91.7166C320.19 93.2744 319.778 95.1548 319.756 97.358ZM387.11 147.295C382.504 147.295 378.554 146.661 375.26 145.393C371.989 144.147 369.385 142.444 367.449 140.286C365.513 138.127 364.255 135.701 363.677 133.009L376.829 131.239C377.229 132.263 377.864 133.22 378.732 134.11C379.599 135 380.746 135.712 382.17 136.246C383.616 136.803 385.374 137.081 387.444 137.081C390.537 137.081 393.085 136.324 395.088 134.811C397.113 133.32 398.126 130.817 398.126 127.3V117.92H397.525C396.902 119.345 395.967 120.691 394.721 121.96C393.475 123.228 391.872 124.263 389.914 125.064C387.956 125.865 385.619 126.266 382.904 126.266C379.054 126.266 375.549 125.375 372.389 123.595C369.251 121.793 366.748 119.044 364.879 115.35C363.031 111.634 362.108 106.938 362.108 101.263C362.108 95.4553 363.054 90.6039 364.945 86.7095C366.837 82.8151 369.352 79.8999 372.489 77.9638C375.649 76.0277 379.11 75.0597 382.871 75.0597C385.741 75.0597 388.145 75.5492 390.081 76.5284C392.017 77.4853 393.575 78.687 394.754 80.1335C395.956 81.5578 396.879 82.9598 397.525 84.3395H398.059V75.7273H412.179V127.501C412.179 131.862 411.111 135.512 408.974 138.45C406.838 141.387 403.878 143.59 400.095 145.059C396.334 146.55 392.006 147.295 387.11 147.295ZM387.411 115.584C389.703 115.584 391.639 115.016 393.219 113.881C394.821 112.724 396.045 111.077 396.891 108.941C397.759 106.782 398.192 104.201 398.192 101.197C398.192 98.1925 397.77 95.5888 396.924 93.3857C396.078 91.1603 394.854 89.4356 393.252 88.2116C391.65 86.9877 389.703 86.3757 387.411 86.3757C385.074 86.3757 383.104 87.0099 381.502 88.2784C379.9 89.5246 378.687 91.2604 377.864 93.4858C377.04 95.7112 376.629 98.2815 376.629 101.197C376.629 104.156 377.04 106.716 377.864 108.874C378.709 111.011 379.922 112.669 381.502 113.848C383.104 115.005 385.074 115.584 387.411 115.584ZM174.058 156.348L161.039 157.149C160.817 156.036 160.338 155.035 159.604 154.145C158.87 153.232 157.902 152.509 156.7 151.975C155.52 151.419 154.107 151.141 152.461 151.141C150.257 151.141 148.399 151.608 146.886 152.543C145.373 153.455 144.616 154.679 144.616 156.214C144.616 157.438 145.106 158.473 146.085 159.319C147.064 160.165 148.744 160.843 151.125 161.355L160.405 163.224C165.39 164.248 169.106 165.895 171.554 168.165C174.002 170.435 175.226 173.417 175.226 177.111C175.226 180.471 174.236 183.42 172.255 185.957C170.297 188.494 167.604 190.474 164.177 191.898C160.772 193.3 156.845 194.001 152.394 194.001C145.606 194.001 140.199 192.588 136.171 189.762C132.165 186.914 129.817 183.041 129.127 178.146L143.114 177.411C143.537 179.481 144.56 181.061 146.185 182.151C147.81 183.219 149.89 183.754 152.427 183.754C154.92 183.754 156.922 183.275 158.436 182.318C159.971 181.339 160.75 180.082 160.772 178.546C160.75 177.255 160.205 176.198 159.137 175.375C158.069 174.529 156.422 173.884 154.196 173.439L145.317 171.67C140.31 170.668 136.583 168.933 134.135 166.462C131.709 163.992 130.496 160.843 130.496 157.016C130.496 153.722 131.386 150.885 133.167 148.504C134.969 146.122 137.495 144.286 140.744 142.996C144.015 141.705 147.843 141.06 152.227 141.06C158.703 141.06 163.799 142.428 167.515 145.165C171.254 147.903 173.435 151.63 174.058 156.348ZM207.347 194.001C202.162 194.001 197.677 192.9 193.894 190.697C190.133 188.471 187.229 185.378 185.182 181.417C183.135 177.433 182.111 172.816 182.111 167.564C182.111 162.268 183.135 157.639 185.182 153.678C187.229 149.694 190.133 146.601 193.894 144.398C197.677 142.172 202.162 141.06 207.347 141.06C212.532 141.06 217.005 142.172 220.766 144.398C224.549 146.601 227.464 149.694 229.512 153.678C231.559 157.639 232.583 162.268 232.583 167.564C232.583 172.816 231.559 177.433 229.512 181.417C227.464 185.378 224.549 188.471 220.766 190.697C217.005 192.9 212.532 194.001 207.347 194.001ZM207.414 182.986C209.772 182.986 211.742 182.318 213.322 180.983C214.902 179.625 216.093 177.778 216.894 175.442C217.717 173.105 218.129 170.446 218.129 167.464C218.129 164.482 217.717 161.822 216.894 159.486C216.093 157.149 214.902 155.302 213.322 153.945C211.742 152.587 209.772 151.908 207.414 151.908C205.032 151.908 203.03 152.587 201.405 153.945C199.803 155.302 198.59 157.149 197.767 159.486C196.965 161.822 196.565 164.482 196.565 167.464C196.565 170.446 196.965 173.105 197.767 175.442C198.59 177.778 199.803 179.625 201.405 180.983C203.03 182.318 205.032 182.986 207.414 182.986ZM264.995 194.001C259.81 194.001 255.326 192.9 251.543 190.697C247.782 188.471 244.878 185.378 242.83 181.417C240.783 177.433 239.759 172.816 239.759 167.564C239.759 162.268 240.783 157.639 242.83 153.678C244.878 149.694 247.782 146.601 251.543 144.398C255.326 142.172 259.81 141.06 264.995 141.06C270.18 141.06 274.653 142.172 278.414 144.398C282.197 146.601 285.113 149.694 287.16 153.678C289.207 157.639 290.231 162.268 290.231 167.564C290.231 172.816 289.207 177.433 287.16 181.417C285.113 185.378 282.197 188.471 278.414 190.697C274.653 192.9 270.18 194.001 264.995 194.001ZM265.062 182.986C267.421 182.986 269.39 182.318 270.97 180.983C272.55 179.625 273.741 177.778 274.542 175.442C275.365 173.105 275.777 170.446 275.777 167.464C275.777 164.482 275.365 161.822 274.542 159.486C273.741 157.149 272.55 155.302 270.97 153.945C269.39 152.587 267.421 151.908 265.062 151.908C262.681 151.908 260.678 152.587 259.053 153.945C257.451 155.302 256.238 157.149 255.415 159.486C254.614 161.822 254.213 164.482 254.213 167.464C254.213 170.446 254.614 173.105 255.415 175.442C256.238 177.778 257.451 179.625 259.053 180.983C260.678 182.318 262.681 182.986 265.062 182.986ZM313.698 163.358V193H299.477V141.727H313.03V150.773H313.631C314.766 147.791 316.669 145.433 319.339 143.697C322.009 141.939 325.247 141.06 329.053 141.06C332.613 141.06 335.718 141.839 338.366 143.396C341.014 144.954 343.073 147.179 344.541 150.072C346.01 152.943 346.744 156.37 346.744 160.354V193H332.524V162.891C332.547 159.753 331.745 157.305 330.121 155.547C328.496 153.767 326.26 152.876 323.411 152.876C321.498 152.876 319.806 153.288 318.338 154.112C316.891 154.935 315.756 156.137 314.933 157.717C314.132 159.274 313.72 161.155 313.698 163.358Z" fill="url(#paint0_linear_222_13)"/>
<path d="M248.335 212.667C250.129 229.519 245.38 251.453 219.256 249.587C210.242 249.128 193.056 240.226 195.767 208.404C195.81 207.908 196.185 207.493 196.678 207.423C215.792 204.67 242.242 204.75 248.134 212.16C248.251 212.307 248.316 212.481 248.335 212.667Z" fill="url(#paint1_linear_222_13)" fill-opacity="0.1"/>
<path d="M254.254 212.667C252.46 229.519 257.209 251.453 283.333 249.587C292.347 249.127 309.533 240.225 306.822 208.403C306.779 207.907 306.404 207.493 305.911 207.422C286.797 204.67 260.347 204.749 254.455 212.16C254.338 212.307 254.273 212.48 254.254 212.667Z" fill="url(#paint2_linear_222_13)" fill-opacity="0.1"/>
<path d="M177.634 264.111C168.937 258.88 159.157 236.857 156.048 227.962C156.005 227.84 155.984 227.723 155.983 227.594C155.903 220.592 162.575 208.728 189.945 215.194C190.527 215.331 190.944 215.854 190.92 216.451C190.199 234.349 186.224 269.278 177.634 264.111Z" fill="url(#paint3_linear_222_13)" fill-opacity="0.1"/>
<path d="M314.483 277.136C308.926 267.046 311.168 235.02 312.863 222.553C312.876 222.456 312.899 222.37 312.935 222.279C316.467 213.309 329.066 200.601 351.89 219.738C352.317 220.096 352.473 220.69 352.246 221.199C342.292 243.588 319.991 287.137 314.483 277.136Z" fill="url(#paint4_linear_222_13)" fill-opacity="0.1"/>
<defs>
<linearGradient id="paint0_linear_222_13" x1="75.4376" y1="133.053" x2="474.554" y2="148.248" gradientUnits="userSpaceOnUse">
<stop stop-color="#316FEA"/>
<stop offset="0.4375" stop-color="#0000ff"/>
<stop offset="0.640625" stop-color="#316FEA"/>
<stop offset="0.921875" stop-color="#316FEA"/>
</linearGradient>
<linearGradient id="paint1_linear_222_13" x1="222.077" y1="205.758" x2="222.077" y2="249.699" gradientUnits="userSpaceOnUse">
<stop stop-color="white" stop-opacity="0"/>
<stop offset="1" stop-color="white"/>
</linearGradient>
<linearGradient id="paint2_linear_222_13" x1="280.512" y1="205.758" x2="280.512" y2="249.698" gradientUnits="userSpaceOnUse">
<stop stop-color="white" stop-opacity="0"/>
<stop offset="1" stop-color="white"/>
</linearGradient>
<linearGradient id="paint3_linear_222_13" x1="173.47" y1="213.328" x2="173.47" y2="264.627" gradientUnits="userSpaceOnUse">
<stop stop-color="white" stop-opacity="0"/>
<stop offset="1" stop-color="white"/>
</linearGradient>
<linearGradient id="paint4_linear_222_13" x1="337.081" y1="210.835" x2="310.251" y2="276.165" gradientUnits="userSpaceOnUse">
<stop stop-color="white" stop-opacity="0"/>
<stop offset="1" stop-color="white"/>
</linearGradient>
</defs>
</svg>
