<svg width="24" height="24" viewBox="0 0 24 24" fill="none" xmlns="http://www.w3.org/2000/svg">
<path d="M12 22.0001C10.6167 22.0001 9.31667 21.7374 8.1 21.2121C6.88333 20.6874 5.825 19.9751 4.925 19.0751C4.025 18.1751 3.31267 17.1167 2.788 15.9001C2.26267 14.6834 2 13.3834 2 12.0001C2 10.6167 2.26267 9.31673 2.788 8.10006C3.31267 6.88339 4.025 5.82506 4.925 4.92506C5.825 4.02506 6.88333 3.31239 8.1 2.78706C9.31667 2.26239 10.6167 2.00006 12 2.00006C13.3833 2.00006 14.6833 2.26239 15.9 2.78706C17.1167 3.31239 18.175 4.02506 19.075 4.92506C19.975 5.82506 20.6873 6.88339 21.212 8.10006C21.7373 9.31673 22 10.6167 22 12.0001C22 13.3834 21.7373 14.6834 21.212 15.9001C20.6873 17.1167 19.975 18.1751 19.075 19.0751C18.175 19.9751 17.1167 20.6874 15.9 21.2121C14.6833 21.7374 13.3833 22.0001 12 22.0001Z" fill="#B9934B"/>
<path d="M11.0568 18V9.27272H13.1136V18H11.0568ZM12.0909 8.03409C11.7651 8.03409 11.4848 7.92613 11.25 7.71022C11.0151 7.49053 10.8977 7.22727 10.8977 6.92045C10.8977 6.60984 11.0151 6.34659 11.25 6.13068C11.4848 5.91098 11.7651 5.80113 12.0909 5.80113C12.4204 5.80113 12.7007 5.91098 12.9318 6.13068C13.1666 6.34659 13.2841 6.60984 13.2841 6.92045C13.2841 7.22727 13.1666 7.49053 12.9318 7.71022C12.7007 7.92613 12.4204 8.03409 12.0909 8.03409Z" fill="white"/>
</svg>
